<svg xmlns="http://www.w3.org/2000/svg"  viewBox="0 0 48 48" width="48px" height="48px" baseProfile="basic"><path fill="#d6e5e5" d="M43.081,31.098c-1.489,3.806-4.263,7.32-7.602,9.685c-0.847,0.594-1.752,0.973-2.725,1.304	c-0.964,0.321-1.918,0.672-2.891,0.964c-2.239,0.672-4.663,0.973-6.989,0.769s-4.604-0.876-6.843-1.528	c-1.762-0.516-3.31-1.158-4.633-2.463c-1.09-1.08-2.171-2.2-3.115-3.417c-1.11-1.45-1.986-3.037-2.677-4.731	c-1.664-4.098-2.404-8.595-1.295-12.927c1.1-4.254,3.825-7.583,7.252-10.221c3.533-2.716,7.485-4.653,11.983-4.955	c1.022-0.049,2.044,0.01,3.047,0.175c1.119,0.185,2.21,0.496,3.29,0.847c0.964,0.311,1.947,0.604,2.872,1.042	c1.703,0.798,3.212,1.762,4.624,3.018c3.018,2.696,5.412,6.2,6.405,10.152C44.775,22.834,44.59,27.234,43.081,31.098z"/><path fill="#d03827" d="M21.444,38.506c2.006-0.008,3.012-0.016,5.018-0.024c0.037-4.959-0.014-9.897,0.022-14.856	c3.331-2.821,6.958-6.109,9.576-8.113c-1.026-1.306-2.03-2.326-3.033-3.531c-1.648,1.141-3.542,3.124-5.039,4.469	c-1.987,1.786-2.773,2.588-3.929,3.46c-2.974-2.201-6.682-5.889-9.694-7.969c-0.86,0.875-1.927,2.125-2.964,3.554	c1.501,1.138,4.86,4.09,6.111,5.059c1.169,0.905,1.947,1.689,3.37,2.699c0.157,0.112,0.352,0.237,0.485,0.376	c0.181,0.189,0.17,0.496,0.169,0.669C21.483,29.464,21.637,33.7,21.444,38.506z"/><path fill="#010101" d="M36.415,15.159c-0.966-1.216-2.036-2.342-3.033-3.531c-0.131-0.156-0.438-0.197-0.606-0.078	c-3.178,2.238-5.661,5.34-8.721,7.73c-3.247-2.464-6.087-5.436-9.437-7.769c-0.178-0.124-0.46-0.071-0.606,0.078	c-1.108,1.137-2.106,2.374-3.042,3.655c-0.173,0.237-0.017,0.534,0.179,0.684c2.202,1.681,4.256,3.558,6.412,5.299	c0.689,0.556,1.351,1.145,2.047,1.693c0.386,0.303,0.815,0.566,1.188,0.882c0.398,0.337,0.235,0.99,0.232,1.471	c-0.012,2.089,0.007,4.177,0.014,6.266c0.008,2.324-0.007,4.647-0.098,6.969c-0.008,0.201,0.089,0.332,0.22,0.407	c0.074,0.054,0.163,0.094,0.28,0.093c1.673-0.007,3.345-0.017,5.018-0.024c0.272-0.001,0.498-0.228,0.5-0.5	c0.035-4.876-0.01-9.753,0.022-14.629c3.103-2.639,6.098-5.425,9.329-7.908C36.589,15.732,36.633,15.434,36.415,15.159z M28.535,21.208c-0.459,0.398-0.919,0.795-1.38,1.19c-0.333,0.286-0.944,0.632-1.128,1.034c-0.196,0.432-0.05,1.209-0.052,1.68	c-0.003,0.66-0.004,1.321-0.005,1.981c-0.001,1.237,0,2.475,0.002,3.712c0.003,2.393,0.004,4.785-0.01,7.178	c-1.335,0.006-2.671,0.013-4.006,0.019c0.144-4.203,0.049-8.408,0.071-12.612c0.005-0.855,0.185-1.742-0.558-2.329	c-0.817-0.645-1.657-1.25-2.454-1.923c-1.143-0.964-2.318-1.888-3.46-2.854c-1.144-0.968-2.285-1.944-3.464-2.87	c0.73-0.977,1.508-1.918,2.345-2.806c3.295,2.358,6.122,5.312,9.371,7.732c0.127,0.095,0.378,0.096,0.505,0	c1.362-1.034,2.586-2.235,3.853-3.379c1.588-1.434,3.072-3.023,4.795-4.301c0.796,0.93,1.614,1.841,2.393,2.785	c-1.45,1.137-2.856,2.329-4.25,3.534C30.245,19.722,29.391,20.466,28.535,21.208z"/><path fill="#010101" d="M44.268,18.692c-0.964-3.834-3.231-7.431-6.559-10.403c-1.396-1.244-2.948-2.257-4.742-3.097	c-0.831-0.394-1.702-0.672-2.545-0.941l-0.386-0.124c-0.905-0.294-2.105-0.657-3.363-0.864c-1.034-0.171-2.094-0.231-3.161-0.181	c-4.185,0.281-8.192,1.935-12.254,5.057C7.35,11.147,4.85,14.677,3.826,18.632c-1.042,4.069-0.6,8.523,1.316,13.24	c0.732,1.793,1.655,3.423,2.745,4.848c0.991,1.277,2.104,2.421,3.159,3.467c1.482,1.46,3.203,2.105,4.844,2.586l0.115,0.033	c2.207,0.643,4.488,1.308,6.823,1.513c0.494,0.044,0.997,0.065,1.506,0.065c1.858,0,3.792-0.289,5.671-0.854	c0.658-0.197,1.307-0.421,1.956-0.645c0.315-0.108,0.632-0.218,0.952-0.324c0.863-0.294,1.878-0.687,2.854-1.37	c3.43-2.43,6.266-6.042,7.779-9.91V31.28C45.059,27.407,45.315,22.938,44.268,18.692z M42.615,30.917	c-1.444,3.69-4.151,7.139-7.424,9.457c-0.87,0.61-1.803,0.97-2.597,1.239c-0.32,0.107-0.64,0.218-0.959,0.327	c-0.636,0.22-1.272,0.439-1.917,0.633c-2.273,0.683-4.625,0.941-6.802,0.749c-2.237-0.196-4.471-0.848-6.631-1.477l-0.115-0.033	c-1.515-0.443-3.098-1.033-4.422-2.338c-1.03-1.021-2.115-2.136-3.069-3.365c-1.034-1.352-1.912-2.904-2.611-4.615	c-1.833-4.513-2.262-8.757-1.273-12.613c0.966-3.732,3.345-7.08,7.072-9.949c3.899-2.998,7.73-4.585,11.701-4.852	c0.225-0.011,0.448-0.016,0.672-0.016c0.763,0,1.523,0.062,2.271,0.185c1.191,0.197,2.345,0.547,3.218,0.829l0.389,0.125	c0.812,0.26,1.65,0.527,2.424,0.895c1.707,0.799,3.18,1.76,4.503,2.938c3.177,2.838,5.339,6.262,6.253,9.899	C44.295,22.979,44.053,27.234,42.615,30.917z"/></svg>